<svg xmlns="http://www.w3.org/2000/svg"><symbol id="cart" viewBox="0 0 36 36"><path d="M6.84 10.5l7.05-7a1.53 1.53 0 0 1 2.61 1.04 1.49 1.49 0 0 1-.45 1.07l-4.89 4.89zm18 0h4.32l-7-7a1.53 1.53 0 0 0-2.66 1.04 1.49 1.49 0 0 0 .5 1.07zm5.55 6v.06L25 30H11L5.63 16.56v-.06zm5.61-3H0v3h1a2.1 2.1 0 0 1 1.89 1.18L9 33h18l6.15-15.32A2.11 2.11 0 0 1 35 16.5h1z"/></symbol><symbol id="close" viewBox="0 0 36 35.75"><path d="M32.05 27.91l-10-10 10-10-4-4-10 10L8 3.82l-4 4 10 10-10 10 4 4 10-10 10 10z"/></symbol><symbol id="forward-arrow" viewBox="0 0 36 35.75"><path d="M7.31 4.47L11.86 0l17.79 17.87-17.79 17.88-4.55-4.47 13.4-13.41z"/></symbol><symbol id="back-arrow" viewBox="0 0 35.75 35.75"><path d="M24.83 0L29 4.21 15.13 17.88 29 31.53l-4.21 4.22L6.7 17.88z"/></symbol><symbol id="facebook" viewBox="0 0 35.75 35.88"><path d="M14.23 12.89h-3.65v4.86h3.65v14.59h6.07V17.75h4.43l.44-4.86H20.3v-2c0-1.16.24-1.62 1.36-1.62h3.51V3.16h-4.63c-4.37 0-6.31 1.93-6.31 5.61z"/></symbol><symbol id="instagram" viewBox="0 0 36 35.88"><defs><style>.cls-1{fill:#fff}</style></defs><path d="M18 3.16c-4 0-4.52 0-6.09.09-5.37.25-8.35 3.22-8.6 8.6-.07 1.58-.09 2.08-.09 6.09s0 4.52.09 6.1c.24 5.36 3.22 8.35 8.6 8.59 1.57.08 2.08.09 6.09.09s4.52 0 6.09-.09c5.37-.24 8.36-3.22 8.6-8.59.07-1.58.09-2.08.09-6.1s0-4.51-.09-6.09c-.24-5.36-3.22-8.35-8.59-8.6-1.58-.07-2.1-.09-6.1-.09z"/><path d="M18 10.7a7.59 7.59 0 1 0 7.59 7.59A7.59 7.59 0 0 0 18 10.7zm0 13.22a5.63 5.63 0 1 1 5.63-5.63A5.62 5.62 0 0 1 18 23.92zM27.05 7a1.78 1.78 0 1 0 1.77 1.78A1.78 1.78 0 0 0 27.05 7z" class="cls-1"/></symbol><symbol id="search" viewBox="0 0 36 35.99"><path d="M35.8 32.46l-9.31-9.31a14.62 14.62 0 1 0-3.58 3.48L32.27 36zM4.38 14.59A10.31 10.31 0 1 1 14.69 24.9 10.32 10.32 0 0 1 4.38 14.59z"/></symbol><symbol id="twitter" viewBox="0 0 36.3 35.88"><path d="M35.43 7.57a14 14 0 0 1-4.07 1.12 7.16 7.16 0 0 0 3.12-3.92A14.3 14.3 0 0 1 30 6.49 7.09 7.09 0 0 0 17.89 13 20.15 20.15 0 0 1 3.27 5.55 7.1 7.1 0 0 0 5.46 15a7 7 0 0 1-3.21-.88 7.1 7.1 0 0 0 5.69 7 7.15 7.15 0 0 1-3.2.12 7.1 7.1 0 0 0 6.62 4.93 14.25 14.25 0 0 1-10.5 2.98 20 20 0 0 0 10.88 3.19c13.16 0 20.6-11.12 20.15-21.09a14.4 14.4 0 0 0 3.54-3.68z"/></symbol><symbol id="add" viewBox="0 0 36 35.75"><path d="M35.87 14.89H21V0h-6v14.89H.13v6H15v14.9h6V20.85h14.87z"/></symbol></svg>