<svg id="Layer_1" data-name="Layer 1" xmlns="http://www.w3.org/2000/svg" width="0.4in" height="0.4in" viewBox="0 0 32 32"><title>logo-32</title><path id="Path_13" data-name="Path 13" d="M11.4,3a7.6,7.6,0,0,1,0,10.8,6.3,6.3,0,0,1-4.5,1.8,6.3,6.3,0,0,1-4.5-1.8A7.8,7.8,0,0,1,2.4,3,6.3,6.3,0,0,1,6.9,1.2,5.9,5.9,0,0,1,11.4,3Zm-7.1.3c-.5.9-.7,2.5-.7,5.1s.3,4.4.8,5.3A2.6,2.6,0,0,0,6.9,15a2.6,2.6,0,0,0,2.7-1.5c.5-.9.6-2.5.6-5S10,3.9,9.5,3A2.6,2.6,0,0,0,6.9,1.7,2.5,2.5,0,0,0,4.3,3.3Z" fill="#980039"/><path id="Path_17" data-name="Path 17" d="M4.9,17.6H4.4C2.2,17.5,1,18.7.7,21.3H.2l.2-4.2H12.3l.2,4.2H12c-.2-2.6-1.5-3.8-3.6-3.7H7.8V30.3H9.7v.5H3.1v-.5H4.9Z" fill="#980039"/><path id="Path_18" data-name="Path 18" d="M24.5,21.2l2.2,5.7,2.7-8.2a1.4,1.4,0,0,0,.2-.6c0-.4-.2-.5-.9-.5H28v-.5h3.8v.5h-.3A1.5,1.5,0,0,0,30,18.9L25.9,31.1h-.6l-2.4-6.3-2.7,6.3h-.4L14.7,17.6H13.3v-.5H27.1v.5H26Zm-6.9-3.6,3.6,9.6L22.6,24l-2.4-6.4Zm5.5,0,1.1,2.7,1.2-2.7Z" fill="#980039"/><path id="Path_22" data-name="Path 22" d="M21,9.3l1-.7a3.9,3.9,0,0,1,1.4-.5h1.5a4,4,0,0,1,1.5.3,4.1,4.1,0,0,1,1.1.7,2.4,2.4,0,0,1,.7,1.2c0,.2,0,.3-.1.3s-.2,0-.3-.1a1,1,0,0,0-.5-.6l-.8-.4c-.2-.2-.5-.2-.8-.3L25,8.9H23.1a4.9,4.9,0,0,0-1.7.6,2.8,2.8,0,0,1,1.3.3,2.6,2.6,0,0,1,1.1.7,2.4,2.4,0,0,1,.6,1.1,2.2,2.2,0,0,1,.1,1.4,3.4,3.4,0,0,1-.7,1.5,2.7,2.7,0,0,1-1.2.9l-1.5.4-1.6-.2A4.7,4.7,0,0,1,18,15a3.2,3.2,0,0,1-1.2-1.1,3.8,3.8,0,0,1-.8-1.7,5.5,5.5,0,0,1-.1-1.8,4.9,4.9,0,0,1,.6-1.7,7.2,7.2,0,0,1,1.1-1.5,4,4,0,0,1,1.5-1,3.5,3.5,0,0,1,1.8-.5,3.7,3.7,0,0,1-.2-1.8,3.5,3.5,0,0,1,.6-1.7,2.5,2.5,0,0,1,1.5-1,3.1,3.1,0,0,1,1.9-.1A3,3,0,0,1,26,2a2.7,2.7,0,0,1,.5,1.5c-.1.3-.1.6-.3.8a1.8,1.8,0,0,1-.5.7,1.3,1.3,0,0,1-.8.3,1.4,1.4,0,0,1-.9,0h-.2V5c0-.1,0-.2.1-.2h.8l.5-.3a1.3,1.3,0,0,0,.4-.7,1.5,1.5,0,0,0-.1-.7.7.7,0,0,0-.4-.6.8.8,0,0,0-.6-.4,2.4,2.4,0,0,0-2.3.5,3,3,0,0,0-.8,1.6,5.5,5.5,0,0,0,.2,1.8v.2c0,.1-.1.1-.2.2a3.9,3.9,0,0,0-2.3.7,4.1,4.1,0,0,0-1.6,1.6,4.5,4.5,0,0,0-.7,2.5,5.9,5.9,0,0,0,.2,1.3,3.9,3.9,0,0,0,.6,1.1l.9.8,1.1.5,1.1.2h1.1a3.9,3.9,0,0,0,1.1-.6,2.8,2.8,0,0,0,.8-1.1,2.2,2.2,0,0,0,.2-1.2,2.1,2.1,0,0,0-.4-1.1,2.5,2.5,0,0,0-1-.8l-1.2-.3a.4.4,0,0,1-.5-.1C20.7,9.7,20.7,9.5,21,9.3Z" fill="#980039"/></svg>