<svg id="Layer_1" data-name="Layer 1" xmlns="http://www.w3.org/2000/svg" width="3.6in" height="0.4in" viewBox="0 0 256 29"><title>logo</title><g id="Group_11" data-name="Group 11"><g id="Group_8" data-name="Group 8"><path id="Path_13" data-name="Path 13" d="M22,3.5a14.9,14.9,0,0,1,0,20.9,11.9,11.9,0,0,1-8.7,3.5,11.8,11.8,0,0,1-8.7-3.5,14.7,14.7,0,0,1,0-20.9A11.7,11.7,0,0,1,13.3.1,11.8,11.8,0,0,1,22,3.5ZM8.1,4.2C7.3,5.9,6.9,8.9,6.9,14s.4,8.6,1.5,10.3a5.1,5.1,0,0,0,4.9,2.5,5.2,5.2,0,0,0,5.2-3c.8-1.7,1.2-4.8,1.2-9.6s-.4-8.8-1.5-10.6a5.1,5.1,0,0,0-4.9-2.5A5.1,5.1,0,0,0,8.1,4.2Z" fill="#980039"/><path id="Path_14" data-name="Path 14" d="M31,1.7H27.8V.7H39.5c5.4,0,7.1.4,8.8,1.9a7,7,0,0,1,.6,9.9l-.5.5c-1.6,1.4-3.5,1.8-8.9,1.8H36.6V26.2h3.5v1H27.8v-1H31Zm8.5,12.1c3.8,0,5.1-1.5,5.1-5.9s-1-6.2-5.2-6.2H36.6V13.8Z" fill="#980039"/><path id="Path_15" data-name="Path 15" d="M53.2,20.1l-1.5,4.5a4.2,4.2,0,0,0-.4,1c0,.5.4.6,1.4.6h2.1v1H46.6v-1H48c1.8.1,2.1-.2,2.7-2.2L59,.7h1.3l9,25.5h2.9v1H60.3v-1h3.4l-2.2-6.1ZM57.4,8.6,53.6,19.1h7.5Z" fill="#980039"/><path id="Path_16" data-name="Path 16" d="M77.6,1.7H74.4V.7H86.3v1H83.2V26.2h3.2c4,.3,6.9-2.4,8-7.3h1l-.8,8.3H74.4v-1h3.2Z" fill="#980039"/></g><g id="Group_9" data-name="Group 9"><path id="Path_17" data-name="Path 17" d="M137.4,1.7h-1.1c-4.2-.3-6.6,2.2-7,7.2h-1.1l.5-8.2h22.9l.5,8.2H151c-.4-5-2.8-7.5-7-7.2h-1.1V26.2h3.6v1H133.8v-1h3.6Z" fill="#980039"/><path id="Path_18" data-name="Path 18" d="M175.2,8.6l4.2,11,5.3-15.9a2,2,0,0,0,.3-1.1c0-.7-.3-.9-1.6-.9h-1.3V.7h7.3v1h-.7c-1.6.1-2.2.6-2.9,2.5l-7.9,23.5h-1.1l-4.6-12.1-5.3,12.1h-.8l-9.8-26h-2.7V.7h26.7v1h-2.2ZM162,1.7l6.9,18.4,2.7-6.1L166.9,1.7Zm10.6,0,2,5.3,2.3-5.3Z" fill="#980039"/><path id="Path_19" data-name="Path 19" d="M194.6,1.7h-3.1V.7h11.9v1h-3.2V26.2h3.2v1H191.5v-1h3.1Z" fill="#980039"/><path id="Path_20" data-name="Path 20" d="M209.9,4V23.4c-.1,2.6.2,2.8,2.1,2.8h1.6v1h-8.1v-1h1c2,0,2.2-.3,2.2-2.8V4.6c0-2.6-.2-2.9-2.2-2.9h-1V.7h8.6l12.7,17V4.6c0-2.6-.2-2.9-2.2-2.9h-1V.7h7.6v1h-1.1c-1.9,0-2.2.3-2.1,2.9V27.5h-.9Z" fill="#980039"/><path id="Path_21" data-name="Path 21" d="M236.5,1.7h-3.2V.7h20.9l.6,6.8h-1.1c-.9-4.5-2.7-5.9-7-5.8H242V13.3h1.1c3.4.1,4.8-1.3,4.8-4.7H249V19.4h-1.1c-.1-3.9-1.2-5.1-4.9-5.1h-1V26.2h3.7c5.6.1,7.6-1.5,8.8-7.4h1.1l-.6,8.4H233.3v-1h3.2Z" fill="#980039"/></g><g id="Group_10" data-name="Group 10"><path id="Path_22" data-name="Path 22" d="M110.3,16.5a9.5,9.5,0,0,1,2-1.5,14.3,14.3,0,0,1,2.7-.9,9.7,9.7,0,0,1,2.9-.2,6.7,6.7,0,0,1,2.8.6,6.4,6.4,0,0,1,2.2,1.4,5,5,0,0,1,1.3,2.2c.1.4.1.7-.1.7l-.6-.3a3.6,3.6,0,0,0-1-1.1l-1.4-.9-1.6-.5-1.5-.3h-3.5a8.5,8.5,0,0,0-3.4,1.1,5.8,5.8,0,0,1,2.6.6,6,6,0,0,1,2.1,1.4,7.2,7.2,0,0,1,1.2,2.1,5.7,5.7,0,0,1,.1,2.6,5.1,5.1,0,0,1-1.3,2.9,5.8,5.8,0,0,1-2.3,1.8,7.3,7.3,0,0,1-2.9.7,10.6,10.6,0,0,1-6-1.5,7.4,7.4,0,0,1-2.3-2,8.4,8.4,0,0,1-1.6-3.3,10.5,10.5,0,0,1-.2-3.5,11.7,11.7,0,0,1,1.1-3.3,15.4,15.4,0,0,1,2.1-2.9,11.5,11.5,0,0,1,2.9-2,7.3,7.3,0,0,1,3.5-.9,8.6,8.6,0,0,1-.4-3.5A6.4,6.4,0,0,1,111,2.7a6.1,6.1,0,0,1,2.9-2,6.3,6.3,0,0,1,3.6-.1A4.9,4.9,0,0,1,120,2.3a3.9,3.9,0,0,1,.9,2.9,3.7,3.7,0,0,1-.5,1.7,4.1,4.1,0,0,1-1.1,1.2,3.3,3.3,0,0,1-3.2.6l-.3-.2a.9.9,0,0,1-.1-.5l.2-.3c.1-.1.3-.2.4-.1h1.2a2.4,2.4,0,0,0,1.1-.6,3.3,3.3,0,0,0,.7-1.3,3.2,3.2,0,0,0-.2-1.4,2,2,0,0,0-.8-1.2,2.4,2.4,0,0,0-1.2-.7,4.2,4.2,0,0,0-4.3,1,4.3,4.3,0,0,0-1.6,3,8.2,8.2,0,0,0,.3,3.5.7.7,0,0,1,.1.5.5.5,0,0,1-.4.2,10.3,10.3,0,0,0-4.5,1.4,9.8,9.8,0,0,0-3.2,3.2,10.2,10.2,0,0,0-1.3,4.8,10.1,10.1,0,0,0,.4,2.5,7.1,7.1,0,0,0,1.3,2.2,7.3,7.3,0,0,0,1.6,1.4l2.1,1a7.8,7.8,0,0,0,2.2.4,8.2,8.2,0,0,0,2.2-.2,4.5,4.5,0,0,0,2.1-1.2,7,7,0,0,0,1.5-1.9,6.7,6.7,0,0,0,.4-2.4,3.5,3.5,0,0,0-.9-2.3,4.2,4.2,0,0,0-1.8-1.4,6.9,6.9,0,0,0-2.4-.5l-1-.2C109.7,17.2,109.9,16.9,110.3,16.5Z" fill="#980039"/></g></g></svg>