<svg id="Layer_1" data-name="Layer 1" xmlns="http://www.w3.org/2000/svg" width="0.9in" height="0.9in" viewBox="0 0 64 64"><title>logo-64</title><g id="Group_8" data-name="Group 8"><path id="Path_13" data-name="Path 13" d="M11.3,17.8a7.2,7.2,0,0,1,0,10.2A5.4,5.4,0,0,1,7,29.7,5.2,5.2,0,0,1,2.8,28a7.2,7.2,0,0,1,0-10.2A5.2,5.2,0,0,1,7,16.1,5.4,5.4,0,0,1,11.3,17.8Zm-6.8.3c-.4.8-.6,2.3-.6,4.8s.2,4.2.7,5.1a2.7,2.7,0,0,0,2.5,1.2,2.5,2.5,0,0,0,2.5-1.5,11.9,11.9,0,0,0,.6-4.7c0-2.9-.2-4.3-.7-5.2a2.6,2.6,0,0,0-2.4-1.2,2.6,2.6,0,0,0-2.6,1.5Z" fill="#980039"/><path id="Path_14" data-name="Path 14" d="M15.7,16.9H14.2v-.5h5.7c2.6,0,3.5.2,4.3.9a3.4,3.4,0,0,1,.3,4.9c-.1,0-.1.1-.2.2s-1.7.9-4.4.9H18.5v5.6h1.7v.5h-6v-.5h1.5Zm4.2,5.9c1.9,0,2.5-.7,2.5-2.9s-.5-3-2.5-3H18.5v5.9Z" fill="#980039"/><path id="Path_15" data-name="Path 15" d="M26.6,25.9l-.7,2.2-.2.5c0,.3.2.3.7.3h1v.5h-4v-.5h.7c.8,0,1-.1,1.3-1.1l4.1-11.4h.6l4.5,12.5h1.3v.5H30.1v-.5h1.7l-1.1-3Zm2.1-5.6-1.9,5.1h3.7Z" fill="#980039"/><path id="Path_16" data-name="Path 16" d="M38.6,16.9H37.1v-.5h5.8v.5H41.4v12h1.5c2,.1,3.4-1.2,4-3.6h.5L47,29.4H37.1v-.5h1.5Z" fill="#980039"/></g><g id="Group_9" data-name="Group 9"><path id="Path_17" data-name="Path 17" d="M5.2,33.5H4.6c-2-.2-3.2,1-3.4,3.5H.7l.2-4H12.1l.3,4h-.5c-.2-2.5-1.4-3.7-3.5-3.5H7.9v12H9.6V46H3.4v-.5H5.2Z" fill="#980039"/><path id="Path_18" data-name="Path 18" d="M23.7,36.8l2.1,5.4,2.6-7.8a.7.7,0,0,0,.1-.5c0-.3-.1-.4-.7-.4h-.7V33h3.6v.5h-.4c-.7,0-1,.2-1.4,1.2L25.1,46.2h-.6l-2.2-5.9-2.6,5.9h-.5L14.4,33.5H13.1V33H26.2v.5h-1Zm-6.5-3.3,3.4,9,1.3-3-2.2-6Zm5.2,0,1,2.5,1.1-2.5Z" fill="#980039"/><path id="Path_19" data-name="Path 19" d="M33.3,33.5H31.7V33h5.9v.5H36v12h1.6V46H31.7v-.5h1.6Z" fill="#980039"/><path id="Path_20" data-name="Path 20" d="M40.8,34.6v9.5c-.1,1.2,0,1.4,1,1.4h.8V46h-4v-.5h.5c1,0,1.1-.2,1.1-1.4V34.9c0-1.3-.1-1.4-1.1-1.4h-.5V33h4.2l6.3,8.3V34.9c0-1.3-.1-1.4-1.1-1.4h-.5V33h3.7v.5h-.5c-1,0-1.1.1-1.1,1.4V46.1h-.4Z" fill="#980039"/><path id="Path_21" data-name="Path 21" d="M53.8,33.5H52.2V33H62.5l.3,3.3h-.5c-.5-2.2-1.3-2.9-3.5-2.8H56.5v5.6h.6c1.7.1,2.3-.6,2.3-2.3h.5v5.3h-.5c0-1.9-.6-2.5-2.4-2.5h-.5v5.9h1.8c2.8,0,3.8-.8,4.4-3.7h.5L62.9,46H52.2v-.5h1.6Z" fill="#980039"/></g><g id="Group_10" data-name="Group 10"><path id="Path_22" data-name="Path 22" d="M54.7,24.1l1-.7A2.8,2.8,0,0,1,57,23a3.4,3.4,0,0,1,1.4-.1l1.4.2a4.1,4.1,0,0,1,1.1.7,2.4,2.4,0,0,1,.6,1.1c.1.2.1.3,0,.4l-.3-.2c-.2-.2-.3-.4-.6-.5l-.6-.4-.8-.3H56.7a5.2,5.2,0,0,0-1.6.6,3.1,3.1,0,0,1,1.3.3l1,.6.6,1.1a2.8,2.8,0,0,1,0,1.3,3.5,3.5,0,0,1-.6,1.4,3.1,3.1,0,0,1-1.1.9,4,4,0,0,1-1.5.3,3.8,3.8,0,0,1-1.5-.1,3.5,3.5,0,0,1-1.4-.6,4,4,0,0,1-1.2-1,4.6,4.6,0,0,1-.7-1.6,3.3,3.3,0,0,1-.1-1.7,8.4,8.4,0,0,1,.5-1.7,7.1,7.1,0,0,1,1-1.4,7.8,7.8,0,0,1,1.5-1,4.7,4.7,0,0,1,1.7-.4,3.5,3.5,0,0,1-.2-1.7,2.8,2.8,0,0,1,.6-1.6,2.6,2.6,0,0,1,1.4-1,3.7,3.7,0,0,1,1.8-.1,2.8,2.8,0,0,1,1.3.9,2.3,2.3,0,0,1,.4,1.4,1.3,1.3,0,0,1-.3.8l-.5.6a.9.9,0,0,1-.7.3h-.9a.1.1,0,0,1-.1-.1c-.1-.1-.1-.1-.1-.2a.3.3,0,0,1,.1-.2h.2a.6.6,0,0,0,.6,0l.5-.3.4-.6a1.5,1.5,0,0,0-.1-.7l-.4-.6c-.1-.2-.4-.3-.6-.4a2.3,2.3,0,0,0-2.1.5,2.5,2.5,0,0,0-.8,1.5,3.2,3.2,0,0,0,.2,1.7v.3h-.2a4.7,4.7,0,0,0-2.2.7,3.9,3.9,0,0,0-1.5,1.6,3.9,3.9,0,0,0-.7,2.3,5,5,0,0,0,.2,1.2,2.4,2.4,0,0,0,.6,1.1,2.7,2.7,0,0,0,.8.7l1,.5,1.1.2h1.1a2.4,2.4,0,0,0,1.1-.6,3.6,3.6,0,0,0,.7-1,3.6,3.6,0,0,0,.2-1.1,2.1,2.1,0,0,0-.4-1.1,2.3,2.3,0,0,0-1-.7,2,2,0,0,0-1.1-.3h-.5C54.4,24.5,54.5,24.3,54.7,24.1Z" fill="#980039"/></g></svg>